<?xml version="1.0" encoding="UTF-8"?>
<svg version="1.1" xmlns="http://www.w3.org/2000/svg" width="800" height="271">
<path d="M0 0 C2.31 0 4.62 0 7 0 C9.03009405 3.04514107 9.24978323 3.6193288 9.24291992 7.03393555 C9.24599655 7.84295822 9.24907318 8.6519809 9.25224304 9.48551941 C9.24505753 10.36041519 9.23787201 11.23531097 9.23046875 12.13671875 C9.22978142 13.50507622 9.22978142 13.50507622 9.2290802 14.90107727 C9.22605548 16.84039605 9.21816266 18.77971234 9.20581055 20.71899414 C9.1878478 23.6311139 9.18529905 26.5429094 9.18554688 29.45507812 C9.16424236 40.34168404 8.84808598 51.14469467 8 62 C9.32 62 10.64 62 12 62 C12 59.69 12 57.38 12 55 C14.64 55 17.28 55 20 55 C20 57.31 20 59.62 20 62 C20.88751953 62.18175781 20.88751953 62.18175781 21.79296875 62.3671875 C22.58316406 62.53476562 23.37335937 62.70234375 24.1875 62.875 C24.96480469 63.03742188 25.74210938 63.19984375 26.54296875 63.3671875 C29.14112909 64.03634803 31.51956384 64.9847013 34 66 C35.70398643 75.72961769 36.28937008 85.06195946 36.20581055 94.91113281 C36.18768746 97.10233494 36.18530122 99.2931059 36.18554688 101.484375 C36.15708421 112.67626699 35.63266027 123.82761276 35 135 C35.7816452 134.99555878 36.56329041 134.99111755 37.36862183 134.98654175 C44.86574869 134.94586477 52.36281942 134.91571896 59.86002922 134.89637566 C63.71109738 134.88609575 67.56207175 134.8722403 71.41308594 134.84912109 C115.37484214 134.59231935 115.37484214 134.59231935 135 138 C135.33 138.33 135.66 138.66 136 139 C137.42905659 139.30783137 138.86935972 139.56383201 140.3125 139.796875 C141.21597168 139.94866211 142.11944336 140.10044922 143.05029297 140.25683594 C144.02369629 140.41958008 144.99709961 140.58232422 146 140.75 C155.92606858 142.46794218 165.42330301 144.90090973 175 148 C175 148.66 175 149.32 175 150 C175.78375 150.04125 176.5675 150.0825 177.375 150.125 C186.5900964 152.34933361 194.75316502 159.05653443 201 166 C207.1261755 176.08636811 207.40801318 188.71756956 205.46875 200.125 C204.78445607 202.50515279 203.97703677 204.72593624 203 207 C202.75636719 207.65613281 202.51273438 208.31226563 202.26171875 208.98828125 C199.26689788 216.07081972 193.18095326 224.03999695 186.18359375 227.3203125 C185.10271484 227.65675781 185.10271484 227.65675781 184 228 C184 228.66 184 229.32 184 230 C178.35478783 233.02537026 173.00623546 235.04671368 166.8125 236.625 C165.25581626 237.03120319 163.69980378 237.43998911 162.14453125 237.8515625 C161.46753174 238.02510254 160.79053223 238.19864258 160.09301758 238.37744141 C157.91691651 238.98458531 157.91691651 238.98458531 155.57910156 240.00927734 C150.88037756 241.81422074 145.89712922 242.26904716 140.9375 243 C139.90689453 243.165 138.87628906 243.33 137.81445312 243.5 C111.80818627 247.38198502 85.6348497 247.26619694 59.41678134 247.14626721 C54.38103605 247.12562577 49.34526837 247.11723939 44.30949211 247.10759544 C35.80868938 247.09005728 27.30792634 247.06619404 18.80715179 247.03826141 C6.46212114 246.99834384 -5.88288119 246.97965807 -18.22796631 246.96710205 C-22.26307112 246.96280434 -26.29817585 246.95842987 -30.33328056 246.95403481 C-31.33650318 246.95295379 -32.33972579 246.95187277 -33.37334909 246.950759 C-44.82962602 246.93805291 -56.28589094 246.91892232 -67.74215698 246.89883423 C-68.7997093 246.89698131 -69.85726162 246.8951284 -70.94686098 246.89321934 C-102.06747318 246.83834237 -133.18807492 246.77717215 -164.30866814 246.71247292 C-169.12179433 246.70249374 -173.93492057 246.69254197 -178.74804688 246.68261719 C-179.94331749 246.68015119 -181.13858811 246.6776852 -182.37007906 246.67514448 C-201.93323516 246.63499749 -221.49639709 246.60238882 -241.05957125 246.57250018 C-261.35536984 246.5413442 -281.65114434 246.50277672 -301.94691575 246.45720994 C-314.36572504 246.42954489 -326.78451717 246.40741958 -339.20334871 246.39273749 C-347.67002807 246.38216336 -356.13667303 246.36430778 -364.60332637 246.34083296 C-369.46734087 246.32755204 -374.33130751 246.3173158 -379.19534111 246.31578636 C-402.26778239 246.30605412 -425.00654791 246.04195485 -447.8125 242.0625 C-448.78251953 241.90587891 -449.75253906 241.74925781 -450.75195312 241.58789062 C-455.88329261 240.71823079 -460.67439948 239.55038754 -465.5769043 237.81420898 C-470.63837192 236.11345387 -475.83767341 234.85570274 -481 233.5 C-493.53564417 230.20795583 -493.53564417 230.20795583 -498.40234375 228.51171875 C-504.67040855 226.35550446 -511.12978057 224.88859852 -517.5625 223.3125 C-518.87052487 222.98926459 -520.17846825 222.66569923 -521.48632812 222.34179688 C-524.65676881 221.55796099 -527.82798864 220.77745064 -531 220 C-531.09796875 221.05316406 -531.1959375 222.10632813 -531.296875 223.19140625 C-533.80965772 248.12437647 -533.80965772 248.12437647 -539 256 C-542.36110661 258.17617575 -545.12918769 258.23402757 -549.078125 258.1953125 C-550.23828125 258.18886719 -551.3984375 258.18242188 -552.59375 258.17578125 C-553.8003125 258.15902344 -555.006875 258.14226562 -556.25 258.125 C-557.47203125 258.11597656 -558.6940625 258.10695313 -559.953125 258.09765625 C-562.96894782 258.07409513 -565.98437492 258.04119706 -569 258 C-569.93993835 251.20894543 -570.32349102 244.47274571 -570.60546875 237.62695312 C-570.64285156 236.81548828 -570.68023438 236.00402344 -570.71875 235.16796875 C-570.74904297 234.43860107 -570.77933594 233.7092334 -570.81054688 232.95776367 C-570.94710001 230.7863999 -570.94710001 230.7863999 -572 228 C-573.7015625 228.0309375 -573.7015625 228.0309375 -575.4375 228.0625 C-579 228 -579 228 -580 227 C-580.10091059 224.26057426 -580.13866203 221.55173772 -580.125 218.8125 C-580.12886719 218.05646484 -580.13273438 217.30042969 -580.13671875 216.52148438 C-580.1292868 212.23696492 -579.84787715 208.21919819 -579 204 C-579.58007812 203.84144531 -580.16015625 203.68289063 -580.7578125 203.51953125 C-586.20543046 201.89243744 -590.23494787 200.35953405 -594 196 C-594.1875 192.4375 -594.1875 192.4375 -593 189 C-589.60279252 185.50287466 -585.28859675 183.26567375 -581 181 C-580.34 181 -579.68 181 -579 181 C-579.15597656 180.33355469 -579.31195312 179.66710937 -579.47265625 178.98046875 C-580.89434689 172.24862236 -581.63474648 165.76938642 -580 159 C-578.44921875 156.68359375 -578.44921875 156.68359375 -577 155 C-575.35 155.33 -573.7 155.66 -572 156 C-570.93833443 152.8150033 -570.70048237 150.1468496 -570.46484375 146.80078125 C-570.37783203 145.59228516 -570.29082031 144.38378906 -570.20117188 143.13867188 C-570.11416016 141.87603516 -570.02714844 140.61339844 -569.9375 139.3125 C-569.84662109 138.03826172 -569.75574219 136.76402344 -569.66210938 135.45117188 C-569.43794053 132.30100974 -569.21738347 129.15063646 -569 126 C-564.69494181 124.79227065 -560.63154162 124.81611011 -556.1875 124.8125 C-555.40568359 124.80025391 -554.62386719 124.78800781 -553.81835938 124.77539062 C-553.04685547 124.77345703 -552.27535156 124.77152344 -551.48046875 124.76953125 C-550.78848389 124.76542236 -550.09649902 124.76131348 -549.38354492 124.75708008 C-545.86413354 125.11576228 -543.26532028 125.54251899 -540 127 C-538.39212162 129.66741997 -537.80083533 132.48729071 -537.12890625 135.5078125 C-536.91685043 136.34843231 -536.70479462 137.18905212 -536.48631287 138.05514526 C-535.81625703 140.73895203 -535.18910795 143.43075392 -534.5625 146.125 C-534.11541971 147.94730122 -533.66558181 149.76892826 -533.21289062 151.58984375 C-532.1097889 156.05270631 -531.04504953 160.52320385 -530 165 C-525.96026829 164.18815865 -521.92185049 163.37009603 -517.88452148 162.54638672 C-516.51246836 162.26735247 -515.14007508 161.98998523 -513.76733398 161.71435547 C-511.7880008 161.31662221 -509.80999837 160.91228458 -507.83203125 160.5078125 C-506.64327393 160.26691895 -505.4545166 160.02602539 -504.22973633 159.77783203 C-501.09987452 159.1120533 -501.09987452 159.1120533 -498.65014648 158.0300293 C-483.53562293 152.15548532 -465.72710857 151.96464863 -449.75 150.8125 C-446.47724409 150.56824653 -443.20480257 150.32061306 -439.93267822 150.06803894 C-437.91986209 149.91346907 -435.90663734 149.76411088 -433.89300537 149.62055969 C-432.99986633 149.55346298 -432.10672729 149.48636627 -431.18652344 149.41723633 C-430.39936951 149.36046219 -429.61221558 149.30368805 -428.8012085 149.24519348 C-426.98068392 149.18243994 -426.98068392 149.18243994 -426 148 C-424.54602597 147.79523283 -423.08328503 147.65212132 -421.61962891 147.53515625 C-420.68841217 147.45837646 -419.75719543 147.38159668 -418.79776001 147.30249023 C-417.78426483 147.22329346 -416.77076965 147.14409668 -415.7265625 147.0625 C-414.17453629 146.93500366 -414.17453629 146.93500366 -412.59115601 146.80493164 C-409.26943757 146.53232262 -405.94728645 146.26559115 -402.625 146 C-399.30988028 145.73413776 -395.99490098 145.46692692 -392.68026733 145.19506836 C-390.61384688 145.02562875 -388.54713688 144.85967785 -386.48013306 144.69750977 C-385.542612 144.62072998 -384.60509094 144.5439502 -383.63916016 144.46484375 C-382.40125229 144.36610962 -382.40125229 144.36610962 -381.13833618 144.26538086 C-378.81766077 144.04865308 -378.81766077 144.04865308 -376 143 C-374.93850886 141.39688559 -374.93850886 141.39688559 -374 139.4375 C-368.58410419 130.40560191 -358.84003824 125.69338502 -349 123 C-336.54176343 120.08263463 -323.70649744 120.74052763 -311.00268555 120.78881836 C-308.47503723 120.79102234 -305.947388 120.79232564 -303.41973877 120.7928009 C-297.99606779 120.79572422 -292.572461 120.80467948 -287.14880943 120.81910515 C-279.28993911 120.83990592 -271.43109066 120.84848891 -263.57219646 120.8540265 C-250.79526792 120.86326199 -238.01836515 120.88068898 -225.24145508 120.90405273 C-224.47843434 120.90544605 -223.7154136 120.90683936 -222.92927102 120.9082749 C-222.16534052 120.90967043 -221.40141002 120.91106596 -220.61433011 120.91250378 C-209.79277542 120.93225682 -198.97121989 120.95009703 -188.1496582 120.96557617 C-187.00790321 120.96721245 -187.00790321 120.96721245 -185.84308245 120.96888178 C-173.11413723 120.98695654 -160.38518938 121.00089753 -147.65623695 121.01274782 C-139.82526049 121.02030078 -131.99431019 121.03199202 -124.16334889 121.04920948 C-118.15219592 121.06223503 -112.14104707 121.07024164 -106.12988281 121.07652092 C-103.67743934 121.07997009 -101.22499756 121.08516038 -98.77256203 121.09228897 C-77.69085786 121.96155224 -77.69085786 121.96155224 -57 119 C-56.90643723 118.41863785 -56.81287445 117.8372757 -56.71647644 117.23829651 C-55.7355934 111.15290215 -54.74418645 105.06928732 -53.74682617 98.98657227 C-53.37664511 96.72040492 -53.00909232 94.45380653 -52.64428711 92.18676758 C-52.11753302 88.91629302 -51.58114713 85.64751788 -51.04296875 82.37890625 C-50.88346237 81.37541641 -50.72395599 80.37192657 -50.55961609 79.33802795 C-50.39967667 78.37771164 -50.23973724 77.41739532 -50.07495117 76.42797852 C-49.93949387 75.59524918 -49.80403656 74.76251984 -49.66447449 73.90455627 C-48.73855848 69.85718471 -47.31295609 65.93886828 -46 62 C-36.43 62 -26.86 62 -17 62 C-17 47.48 -17 32.96 -17 18 C-15.02 18 -13.04 18 -11 18 C-11 32.52 -11 47.04 -11 62 C-7.37 62 -3.74 62 0 62 C0 41.54 0 21.08 0 0 Z " fill="#a60202" transform="translate(594,0)"/>
</svg>
