<?xml version="1.0" encoding="UTF-8"?>
<svg version="1.1" xmlns="http://www.w3.org/2000/svg" width="500" height="121">
<path d="M0 0 C4.95 0 9.9 0 15 0 C15.33 6.6 15.66 13.2 16 20 C17.98 20.33 19.96 20.66 22 21 C25.35830489 25.63214468 25.56444957 30.48611687 26 36 C26.17918788 37.52183507 26.36614735 39.04278427 26.5625 40.5625 C26.7790625 42.2640625 26.7790625 42.2640625 27 44 C25.68 44.99 24.36 45.98 23 47 C23.350625 48.11375 23.70125 49.2275 24.0625 50.375 C25 54 25 54 24 56 C23.34 56 22.68 56 22 56 C22.99 57.98 22.99 57.98 24 60 C24.66 59.67 25.32 59.34 26 59 C29 58.8125 29 58.8125 32 59 C34 61 34 61 34 64 C35.32 64 36.64 64 38 64 C38 62.68 38 61.36 38 60 C37.01 60 36.02 60 35 60 C35 58.35 35 56.7 35 55 C35.99 55 36.98 55 38 55 C38.66 53.68 39.32 52.36 40 51 C42.97 51.99 42.97 51.99 46 53 C46.06058594 52.09378906 46.12117187 51.18757813 46.18359375 50.25390625 C46.44170057 46.50143013 46.71574525 42.75058356 47 39 C47.0721875 38.04351562 47.144375 37.08703125 47.21875 36.1015625 C47.4037939 34.05947084 47.690795 32.02701058 48 30 C50.77100394 28.61449803 52.9334706 28.8122533 56 29 C56.99 29.66 57.98 30.32 59 31 C59.34057617 33.24658203 59.34057617 33.24658203 59.29296875 36.0078125 C59.28547607 36.8961377 59.2779834 37.78446289 59.27026367 38.69970703 C59.24295166 39.83005371 59.21563965 40.96040039 59.1875 42.125 C59.125625 45.71375 59.06375 49.3025 59 53 C66.26 53 73.52 53 81 53 C82.97821674 57.94554184 83.13218374 59.13160991 82 64 C82.99 64 83.98 64 85 64 C85 63.34 85 62.68 85 62 C87.70879335 60.64560332 90.00933268 60.93498549 93 61 C93.33 61.99 93.66 62.98 94 64 C94.69867188 63.97679687 95.39734375 63.95359375 96.1171875 63.9296875 C97.02726563 63.91164062 97.93734375 63.89359375 98.875 63.875 C100.23238281 63.84019531 100.23238281 63.84019531 101.6171875 63.8046875 C104 64 104 64 106 66 C106.1953125 68.3828125 106.1953125 68.3828125 106.125 71.125 C106.10695312 72.03507812 106.08890625 72.94515625 106.0703125 73.8828125 C106.04710937 74.58148438 106.02390625 75.28015625 106 76 C106.66 76 107.32 76 108 76 C108.144375 75.38125 108.28875 74.7625 108.4375 74.125 C109 72 109 72 110 70 C110.66 70 111.32 70 112 70 C112 69.34 112 68.68 112 68 C118.6 68 125.2 68 132 68 C132 68.66 132 69.32 132 70 C132.66 70 133.32 70 134 70 C134 70.66 134 71.32 134 72 C134.66 72 135.32 72 136 72 C136 73.32 136 74.64 136 76 C143.26 76 150.52 76 158 76 C158.33 77.32 158.66 78.64 159 80 C161.02045442 79.39816251 163.02111039 78.72693904 165 78 C165.33 77.34 165.66 76.68 166 76 C167.65821773 75.62690101 169.32577014 75.29299023 171 75 C171.33 74.67 171.66 74.34 172 74 C173.78071246 73.91273777 175.5648314 73.89300959 177.34765625 73.90234375 C178.42724609 73.90556641 179.50683594 73.90878906 180.61914062 73.91210938 C182.32360352 73.92467773 182.32360352 73.92467773 184.0625 73.9375 C185.77276367 73.94426758 185.77276367 73.94426758 187.51757812 73.95117188 C190.34510351 73.96300253 193.1725264 73.9794859 196 74 C196.66 75.32 197.32 76.64 198 78 C198.88751953 77.01773438 198.88751953 77.01773438 199.79296875 76.015625 C204.53928138 73.03255884 208.83125185 73.56764242 214.3125 73.75 C215.85260742 73.77707031 215.85260742 73.77707031 217.42382812 73.8046875 C219.95017885 73.85168937 222.47460469 73.91737728 225 74 C225 74.66 225 75.32 225 76 C268.56 76 312.12 76 357 76 C357 79.63 357 83.26 357 87 C356.34 87 355.68 87 355 87 C354.9175 87.5775 354.835 88.155 354.75 88.75 C353.76493175 91.70520475 352.41897096 93.06482323 350 95 C348.68 95 347.36 95 346 95 C346 96.98 346 98.96 346 101 C345.34 101 344.68 101 344 101 C344 102.65 344 104.3 344 106 C343.34 106 342.68 106 342 106 C342 106.66 342 107.32 342 108 C339.03908333 109.48045834 336.03331427 109.14248757 332.78690624 109.13701439 C332.0313935 109.13966622 331.27588076 109.14231804 330.49747369 109.14505023 C327.93939949 109.1527733 325.38137306 109.15330354 322.82328796 109.15390015 C320.98133861 109.15791278 319.13939013 109.16235067 317.29744273 109.1671797 C312.21511165 109.17917308 307.13279006 109.18480003 302.05044758 109.18936086 C296.57725531 109.19530641 291.10407447 109.20691876 285.63088989 109.21765137 C272.40355825 109.242198 259.17622282 109.2568051 245.9488754 109.26971143 C242.2153382 109.27342148 238.48180138 109.27739486 234.74826455 109.2814641 C211.58221671 109.30669684 188.41616824 109.32877434 165.25010967 109.34119225 C159.88166489 109.34411368 154.51322013 109.34708117 149.14477539 109.35009766 C148.14431272 109.35065402 148.14431272 109.35065402 147.12363868 109.35122162 C125.49160503 109.3633811 103.85965267 109.39433136 82.22765721 109.43601918 C59.36738532 109.47999386 36.50714906 109.50572314 13.64683276 109.51111281 C1.18119827 109.51453219 -11.28430796 109.5263495 -23.74990273 109.55921555 C-34.36311408 109.58715127 -44.9761709 109.59824389 -55.58941618 109.58702008 C-61.00776097 109.58181698 -66.42578179 109.58482718 -71.84407997 109.60948563 C-76.80049447 109.63185455 -81.75634999 109.63133503 -86.71277346 109.61228175 C-88.50956821 109.60946432 -90.30639988 109.61517615 -92.10313491 109.63009469 C-94.5392389 109.64909157 -96.97332711 109.63748831 -99.40938282 109.61803246 C-100.11281847 109.63088168 -100.81625412 109.6437309 -101.541006 109.65696949 C-105.34951615 109.58978204 -106.90933062 109.07320795 -109.91191357 106.64887297 C-112 104 -112 104 -113 101 C-113.66 101 -114.32 101 -115 101 C-116.31157516 98.37684968 -115.89649988 96.76966564 -115.5625 93.875 C-115.46066406 92.96492188 -115.35882813 92.05484375 -115.25390625 91.1171875 C-115.17011719 90.41851562 -115.08632812 89.71984375 -115 89 C-113.02 88.505 -113.02 88.505 -111 88 C-111.33 87.46375 -111.66 86.9275 -112 86.375 C-113.24964598 83.4070908 -113.27756584 81.19200721 -113 78 C-110.41696916 75.41696916 -108.68573289 75.76417826 -105.16656494 75.75115967 C-103.94305328 75.7619455 -103.94305328 75.7619455 -102.69482422 75.77294922 C-101.83621796 75.77265717 -100.97761169 75.77236511 -100.09298706 75.77206421 C-97.24678543 75.77346078 -94.40084356 75.78903727 -91.5546875 75.8046875 C-89.58456566 75.80841647 -87.61444198 75.81126399 -85.64431763 75.81326294 C-80.45256452 75.82090854 -75.26092286 75.84056496 -70.06921387 75.8626709 C-64.7740225 75.8831094 -59.47881317 75.89226038 -54.18359375 75.90234375 C-43.78901346 75.92380999 -33.39451599 75.95795708 -23 76 C-23 75.34 -23 74.68 -23 74 C-20.03 74 -17.06 74 -14 74 C-14 74.66 -14 75.32 -14 76 C-13.34 76 -12.68 76 -12 76 C-11.67 76.66 -11.34 77.32 -11 78 C-9.35 78 -7.7 78 -6 78 C-6 78.66 -6 79.32 -6 80 C-5.34 80 -4.68 80 -4 80 C-2.9673198 77.21176345 -2.95490707 76.1322726 -3.9375 73.25 C-4.288125 72.5075 -4.63875 71.765 -5 71 C-4.01 70.67 -3.02 70.34 -2 70 C-2 68.68 -2 67.36 -2 66 C-1.34 66 -0.68 66 0 66 C-0.33 65.401875 -0.66 64.80375 -1 64.1875 C-2 62 -2 62 -2 59 C-1.34 59 -0.68 59 0 59 C-0.48881081 54.60070268 -1.88134819 53.01805014 -5 50 C-5 49.01 -5 48.02 -5 47 C-4.01 47 -3.02 47 -2 47 C-2 46.34 -2 45.68 -2 45 C-1.34 45 -0.68 45 0 45 C0 43.68 0 42.36 0 41 C0.66 41 1.32 41 2 41 C2.33 40.01 2.66 39.02 3 38 C4.65 38 6.3 38 8 38 C8 36.35 8 34.7 8 33 C6.515 32.505 6.515 32.505 5 32 C5.62759865 29.07120629 6.58622659 26.63904371 8 24 C8.66 24 9.32 24 10 24 C10 18.72 10 13.44 10 8 C7.69 8 5.38 8 3 8 C2.01 7.34 1.02 6.68 0 6 C0 4.02 0 2.04 0 0 Z M82 72 C82.19471111 73.94999129 82.19471111 73.94999129 83 76 C84.9837767 77.28436734 84.9837767 77.28436734 87 78 C87 76.02 87 74.04 87 72 C85.35 72 83.7 72 82 72 Z " fill="#16a6df" transform="translate(128,6)"/>
<path d="M0 0 C0.74507813 0.00902344 1.49015625 0.01804687 2.2578125 0.02734375 C4.08868059 0.05081642 5.91938238 0.08668475 7.75 0.125 C7.42 0.785 7.09 1.445 6.75 2.125 C4.45779595 2.47937205 2.19461018 2.56836611 -0.12109375 2.68359375 C-2.63740702 2.94549547 -2.63740702 2.94549547 -4.25 6.125 C-6.1953125 6.41796875 -6.1953125 6.41796875 -8.375 6.3125 C-9.65375 6.250625 -10.9325 6.18875 -12.25 6.125 C-12.25 4.805 -12.25 3.485 -12.25 2.125 C-8.4084024 -0.44280471 -4.4360825 -0.10188882 0 0 Z " fill="#16a6df" transform="translate(308.25,79.875)"/>
<path d="M0 0 C0.66 0.33 1.32 0.66 2 1 C1.34 4.63 0.68 8.26 0 12 C-0.99 11.67 -1.98 11.34 -3 11 C-2.8864371 9.35333797 -2.75882619 7.70763918 -2.625 6.0625 C-2.55539062 5.14597656 -2.48578125 4.22945313 -2.4140625 3.28515625 C-2.27742187 2.53105469 -2.14078125 1.77695313 -2 1 C-1.34 0.67 -0.68 0.34 0 0 Z " fill="#16a6df" transform="translate(15,94)"/>
<path d="M0 0 C3.375 -0.125 3.375 -0.125 7 0 C9 2 9 2 9.1953125 3.9453125 C9.13020833 5.96354167 9.06510417 7.98177083 9 10 C7.25372522 7.38058783 6.61277612 5.96175123 6 3 C4.35 3 2.7 3 1 3 C0.67 2.01 0.34 1.02 0 0 Z " fill="#16a6df" transform="translate(225,70)"/>
<path d="M0 0 C0.99 0.66 1.98 1.32 3 2 C2.65120368 5.25543229 1.97866739 6.01873107 -0.5625 8.25 C-1.366875 8.8275 -2.17125 9.405 -3 10 C-3.33 8.02 -3.66 6.04 -4 4 C-3.01 3.67 -2.02 3.34 -1 3 C-0.67 2.01 -0.34 1.02 0 0 Z " fill="#16a6df" transform="translate(152,45)"/>
<path d="M0 0 C1.32 0.33 2.64 0.66 4 1 C3.67 2.32 3.34 3.64 3 5 C2.34 5 1.68 5 1 5 C0.67 6.32 0.34 7.64 0 9 C-0.66 8.67 -1.32 8.34 -2 8 C-1.125 2.25 -1.125 2.25 0 0 Z " fill="#16a6df" transform="translate(149,57)"/>
<path d="M0 0 C1.32 0 2.64 0 4 0 C4 2.64 4 5.28 4 8 C1 7 1 7 0 6 C-0.04080783 4.00041636 -0.04254356 1.99954746 0 0 Z " fill="#16a6df" transform="translate(209,70)"/>
<path d="M0 0 C1.32 0 2.64 0 4 0 C4 0.66 4 1.32 4 2 C3.34 2 2.68 2 2 2 C2 2.66 2 3.32 2 4 C-0.70879335 5.35439668 -3.00933268 5.06501451 -6 5 C-5.38125 4.9175 -4.7625 4.835 -4.125 4.75 C-1.81562433 4.18741541 -1.81562433 4.18741541 -0.75 1.9375 C-0.5025 1.298125 -0.255 0.65875 0 0 Z " fill="#16a6df" transform="translate(468,110)"/>
<path d="M0 0 C0.99 0 1.98 0 3 0 C4.25664978 2.90600261 5 4.79604584 5 8 C4.34 8 3.68 8 3 8 C0.95830515 5.09451118 0 3.59857954 0 0 Z " fill="#16a6df" transform="translate(206,59)"/>
<path d="M0 0 C0.66 0.33 1.32 0.66 2 1 C2 2.32 2 3.64 2 5 C1.34 5 0.68 5 0 5 C0 5.99 0 6.98 0 8 C-0.66 8 -1.32 8 -2 8 C-2.125 5.125 -2.125 5.125 -2 2 C-1.34 1.34 -0.68 0.68 0 0 Z " fill="#16a6df" transform="translate(472,102)"/>
<path d="M0 0 C1.65 0 3.3 0 5 0 C3.1875 3 3.1875 3 1 6 C0.01 6 -0.98 6 -2 6 C-2 5.34 -2 4.68 -2 4 C-1.34 4 -0.68 4 0 4 C0 2.68 0 1.36 0 0 Z " fill="#16a6df" transform="translate(128,47)"/>
<path d="M0 0 C2.05078125 0.03255208 4.1015625 0.06510417 6.15234375 0.09765625 C5.82234375 1.41765625 5.49234375 2.73765625 5.15234375 4.09765625 C4.82234375 3.43765625 4.49234375 2.77765625 4.15234375 2.09765625 C3.25515625 2.40703125 3.25515625 2.40703125 2.33984375 2.72265625 C0.15234375 3.09765625 0.15234375 3.09765625 -2.84765625 1.09765625 C-1.84765625 0.09765625 -1.84765625 0.09765625 0 0 Z " fill="#16a6df" transform="translate(317.84765625,79.90234375)"/>
<path d="M0 0 C0.99 0 1.98 0 3 0 C3 2.64 3 5.28 3 8 C1 7 1 7 -0.125 3.9375 C-0.41375 2.968125 -0.7025 1.99875 -1 1 C-0.67 0.67 -0.34 0.34 0 0 Z " fill="#16a6df" transform="translate(124,76)"/>
<path d="M0 0 C0.66 1.32 1.32 2.64 2 4 C0.35 4.33 -1.3 4.66 -3 5 C-3 3.68 -3 2.36 -3 1 C-2.01 0.67 -1.02 0.34 0 0 Z " fill="#16a6df" transform="translate(299,81)"/>
<path d="M0 0 C-0.33 0.99 -0.66 1.98 -1 3 C-2.65 3.33 -4.3 3.66 -6 4 C-6 3.34 -6 2.68 -6 2 C-6.66 1.67 -7.32 1.34 -8 1 C-5.07175348 0.02391783 -3.04386724 -0.08226668 0 0 Z " fill="#16a6df" transform="translate(122,84)"/>
<path d="M0 0 C0.66 0 1.32 0 2 0 C2.33 1.98 2.66 3.96 3 6 C1.68 6 0.36 6 -1 6 C-0.67 4.02 -0.34 2.04 0 0 Z " fill="#16a6df" transform="translate(151,36)"/>
<path d="M0 0 C2.31 0 4.62 0 7 0 C7.33 1.32 7.66 2.64 8 4 C7.34 4 6.68 4 6 4 C6 3.34 6 2.68 6 2 C3.03 1.505 3.03 1.505 0 1 C0 0.67 0 0.34 0 0 Z " fill="#16a6df" transform="translate(279,82)"/>
</svg>
