<?xml version="1.0" encoding="UTF-8"?>
<svg version="1.1" xmlns="http://www.w3.org/2000/svg" width="150" height="37">
<path d="M0 0 C0 3.96 0 7.92 0 12 C1.4025 11.979375 2.805 11.95875 4.25 11.9375 C6.16674912 11.94835977 8.08345527 11.9699758 10 12 C11.00804688 12.01546875 12.01609375 12.0309375 13.0546875 12.046875 C18.91351534 12.31521826 23.77034649 12.92708165 28.625 16.40625 C30.30704851 18.35589713 30.59743065 19.50696342 30.75 22.0625 C30.44007964 24.84127745 29.95525278 26.07159555 28.4375 28.5 C25.17971981 30.50478781 22.75217167 30.28862859 19 30 C19 30.66 19 31.32 19 32 C13.2625375 32.82215863 7.7166931 33.14398683 1.92529297 33.12939453 C1.05594116 33.13114685 0.18658936 33.13289917 -0.70910645 33.13470459 C-3.55869594 33.13907585 -6.40822247 33.13620236 -9.2578125 33.1328125 C-11.24982719 33.13348677 -13.24184179 33.13445783 -15.2338562 33.13571167 C-19.39793688 33.13718213 -23.56199605 33.13505458 -27.72607422 33.13037109 C-33.05676036 33.12466677 -38.38739622 33.1279614 -43.71808052 33.13394356 C-47.82734556 33.13756042 -51.93659871 33.13640553 -56.04586411 33.13381577 C-58.01141236 33.13315 -59.97696171 33.13396266 -61.9425087 33.13629532 C-64.68972883 33.13884111 -67.43686792 33.1349544 -70.18408203 33.12939453 C-70.99150848 33.13141876 -71.79893494 33.13344299 -72.63082886 33.13552856 C-76.86528997 33.11969161 -80.82854103 32.83788891 -85 32 C-85 31.34 -85 30.68 -85 30 C-85.58007812 30.02320313 -86.16015625 30.04640625 -86.7578125 30.0703125 C-91.61411166 30.18250423 -95.42932395 29.87514915 -100 28 C-100.66 29.98 -101.32 31.96 -102 34 C-103.98 34 -105.96 34 -108 34 C-108.12117188 33.36191406 -108.24234375 32.72382812 -108.3671875 32.06640625 C-108.61855469 30.82697266 -108.61855469 30.82697266 -108.875 29.5625 C-109.03742188 28.73878906 -109.19984375 27.91507813 -109.3671875 27.06640625 C-109.57601562 26.38449219 -109.78484375 25.70257812 -110 25 C-110.66 24.67 -111.32 24.34 -112 24 C-112 23.01 -112 22.02 -112 21 C-111.34 20.67 -110.68 20.34 -110 20 C-109.31270746 17.88153715 -109.31270746 17.88153715 -108.875 15.4375 C-108.70742187 14.61121094 -108.53984375 13.78492188 -108.3671875 12.93359375 C-108.24601562 12.29550781 -108.12484375 11.65742188 -108 11 C-106.02 11 -104.04 11 -102 11 C-101.34 12.98 -100.68 14.96 -100 17 C-99.43079834 16.91435791 -98.86159668 16.82871582 -98.27514648 16.74047852 C-95.66263741 16.34755418 -93.0500692 15.95502437 -90.4375 15.5625 C-89.54224609 15.42779297 -88.64699219 15.29308594 -87.72460938 15.15429688 C-86.84482422 15.02216797 -85.96503906 14.89003906 -85.05859375 14.75390625 C-84.19347168 14.62129395 -83.32834961 14.48868164 -82.43701172 14.35205078 C-80.33054032 14.04774986 -78.21433437 13.81231743 -76.09765625 13.58984375 C-73.0145556 13.25702999 -73.0145556 13.25702999 -71.13885498 11.48442078 C-68.45650827 9.62280265 -66.92252969 9.63626765 -63.68066406 9.65942383 C-62.61986633 9.65965042 -61.5590686 9.65987701 -60.46612549 9.66011047 C-58.75812775 9.68333626 -58.75812775 9.68333626 -57.015625 9.70703125 C-55.84489441 9.71127609 -54.67416382 9.71552094 -53.46795654 9.71989441 C-49.72840384 9.73668825 -45.98938985 9.77434296 -42.25 9.8125 C-39.71485153 9.82754587 -37.17969462 9.84123444 -34.64453125 9.85351562 C-28.42950367 9.88659415 -22.21479032 9.93680117 -16 10 C-16.01546875 8.34291016 -16.01546875 8.34291016 -16.03125 6.65234375 C-16.00669716 3.78273025 -15.86036531 1.6886416 -15 -1 C-10.09243954 -2.38025138 -4.62941355 -2.31470677 0 0 Z " fill="#a60202" transform="translate(113,2)"/>
<path d="M0 0 C1.98 0 3.96 0 6 0 C6.66 1.98 7.32 3.96 8 6 C9.32 6 10.64 6 12 6 C11.67 6.66 11.34 7.32 11 8 C9.35 8 7.7 8 6 8 C5.67 5.69 5.34 3.38 5 1 C4.01 1.33 3.02 1.66 2 2 C1.896875 2.886875 1.79375 3.77375 1.6875 4.6875 C0.98284093 8.0826755 0.0445434 10.21942098 -2 13 C-2.66 13 -3.32 13 -4 13 C-4 12.01 -4 11.02 -4 10 C-3.34 9.67 -2.68 9.34 -2 9 C-1.31270746 6.88153715 -1.31270746 6.88153715 -0.875 4.4375 C-0.70742187 3.61121094 -0.53984375 2.78492188 -0.3671875 1.93359375 C-0.24601563 1.29550781 -0.12484375 0.65742188 0 0 Z " fill="#a60202" transform="translate(5,13)"/>
<path d="M0 0 C-2.40563753 2.40563753 -3.67009811 2.60358311 -7 3 C-9.3125 2.5625 -9.3125 2.5625 -11 2 C-11.33 3.65 -11.66 5.3 -12 7 C-12.66 6.67 -13.32 6.34 -14 6 C-13.67 4.02 -13.34 2.04 -13 0 C-8.38926889 -1.29676812 -4.66159911 -0.71109139 0 0 Z " fill="#a60202" transform="translate(111,1)"/>
</svg>
